<svg xmlns="http://www.w3.org/2000/svg" width="19.565" height="20" viewBox="0 0 19.565 20">
  <path id="Path_42" data-name="Path 42" d="M13.738,20l-5.332-7.76L1.73,20,0,20l7.637-8.878L4.665,6.8.275.409.019.036.007.016S.025.009.034.009h5.8l4.177,6.078.855,1.244.015.018a.275.275,0,0,0,.024-.019L17.177.035c.043-.05.111-.025.173-.026H18.9s.025.006.022.009L18.9.041,11.649,8.476,15.515,14.1l1.614,2.348.013.019.012.018,2.4,3.487c.006.009.019.022.014.023l-.04.006Zm.818-1.238,2.643,0L5,1.305l-2.643,0Z" transform="translate(0 -0.004)" fill="#001f4c"/>
</svg>
