<?xml version="1.0" encoding="UTF-8"?>
<svg id="Layer_2" data-name="Layer 2" xmlns="http://www.w3.org/2000/svg" viewBox="0 0 1488.51 430.8">
  <defs>
    <style>
      .cls-1 {
        fill: #fff;
      }
    </style>
  </defs>
  <g id="Layer_1-2" data-name="Layer 1">
    <g>
      <g>
        <path class="cls-1" d="M1478.59,243.99c-6.27-10.1-15.39-18.97-27.86-27.12-10.31-6.74-22.07-12.58-38.14-18.94-12.03-4.76-24.45-8.97-36.47-13.05l-5.05-1.71c-12.6-4.28-25.62-8.71-38.02-14.25-9.1-4.07-19.48-9.27-27.44-17.03-4.67-4.56-10.29-12.16-10.52-22.49-.01-.45,0-.9,0-1.35.48-24.49,29.5-42.27,69-42.27,24.36,0,48.2,8.77,68.8,21.36.18.11.5.34.81.54.85.55,1.48.93,2.41,1.53l44.68-30.14,5.33-3.68-4.17-2.1c-10.12-5.1-21.26-8.41-31.81-11.36-13.22-3.7-26.22-6.58-38.66-8.55-13.96-2.22-26.38-3.34-37.94-3.44-1.66-.03-3.32-.05-4.98-.05-68.74,0-138.68,29.31-139.97,94.78-1.14,57.73,60.91,78.89,115.65,97.57,44.17,15.07,85.89,29.31,85.29,59.84-.08,3.9-.85,7.69-2.31,11.25-10.03,17.14-36.27,27.37-70.25,27.37-1.11,0-2.23-.01-3.36-.03-25.47-.5-49.47-8.11-69.41-21.99-.13-.09-.41-.32-.69-.54-.39-.31-.78-.61-.9-.69l-1.56-1.07-56.81,38.32,4.35,2.1c30.01,14.5,70.49,23.27,111.05,24.07,1.93.04,3.86.06,5.78.06,22.64,0,43.78-2.69,62.84-8.01,22.57-6.29,40.85-15.92,54.33-28.61,14.77-13.91,23.82-32.38,25.47-52.01.3-3.61.44-7.18.4-10.62-.17-14.69-3.5-27.36-9.91-37.67Z"/>
        <path class="cls-1" d="M1153.64,204.29c29.03-11.63,59.31-35.85,59.31-71.01,0-50.75-43.88-81.04-117.39-81.04h-84.04V0l-30.28,20.43v378.56l30.28-20.42V85.59h62.23c44.63,0,68.22,19,68.22,54.96,0,33.9-26.47,54.96-69.07,54.96h-11.93l-49.44,33.35h69.5c48.52,0,76.35,20.5,76.35,56.25,0,37.63-28.22,60.1-75.49,60.1h-20.91l-49.44,33.35h89.17c77.55,0,127.66-35.67,127.66-90.88,0-38.45-28.38-69.82-74.71-83.39Z"/>
        <polygon class="cls-1" points="934.07 52.24 928.11 52.24 689.65 52.24 689.65 378.56 884.63 378.56 934.07 345.21 752.52 345.21 752.52 228.87 866.2 228.87 915.64 195.52 752.52 195.52 752.52 85.59 928.11 85.59 934.07 85.59 934.07 85.59 934.07 345.21 934.07 426.32 934.07 428.22 934.07 430.8 937.9 428.22 937.9 428.22 964.35 410.38 964.35 410.38 964.35 31.82 934.07 52.24 934.07 52.24"/>
      </g>
      <g>
        <path class="cls-1" d="M0,123.26V53.2h14.98v70.06H0Z"/>
        <path class="cls-1" d="M91.71,53.2v70.06h-14.98l-30.83-46v46h-14.98V53.2h14.98l30.83,46.09v-46.09h14.98Z"/>
        <path class="cls-1" d="M168.05,53.2l-24.35,70.06h-17.68l-25.22-70.06h16.81l17.01,52.96,17.01-52.96h16.43Z"/>
        <path class="cls-1" d="M177.04,53.2h50.06v12.56h-35.08v16.62h25.12v11.79h-25.12v16.52h35.08v12.56h-50.06V53.2Z"/>
        <path class="cls-1" d="M249.51,101.22c0,7.25,5.31,11.02,13.72,11.02,7.73,0,12.37-3.29,12.37-8.79,0-4.54-3-7.63-8.31-8.5l-10.92-1.93c-13.53-2.42-19.71-9.66-19.71-19.71,0-12.66,10.73-21.07,26.57-21.07s26.48,8.21,26.48,20.87h-14.59c0-5.41-4.83-8.89-11.5-8.89s-11.02,3-11.02,7.92,4.16,6.57,8.89,7.34l11.11,1.93c12.46,2.22,19.04,9.66,19.04,20.39,0,13.43-11.31,22.52-28.7,22.52s-28.22-9.18-28.22-23.1h14.79Z"/>
        <path class="cls-1" d="M350.98,65.66h-20.29v57.59h-14.98v-57.59h-20.39v-12.47h55.66v12.47Z"/>
        <path class="cls-1" d="M432.64,53.2v70.06h-14.98v-16.91c0-5.89.1-11.69.19-17.39.19-5.7.48-9.86.77-12.37l-15.17,45.8h-13.82l-14.98-46c.68,6.67.97,16.72.97,29.96v16.91h-14.98V53.2h18.65l17.39,52.86,17.39-52.86h18.55Z"/>
        <path class="cls-1" d="M448.49,53.2h50.06v12.56h-35.08v16.62h25.12v11.79h-25.12v16.52h35.08v12.56h-50.06V53.2Z"/>
        <path class="cls-1" d="M571.6,53.2v70.06h-14.98l-30.83-46v46h-14.98V53.2h14.98l30.83,46.09v-46.09h14.98Z"/>
        <path class="cls-1" d="M636.83,65.66h-20.29v57.59h-14.98v-57.59h-20.39v-12.47h55.66v12.47Z"/>
        <path class="cls-1" d="M438.34,203.92h-16.04c-1.06-7.63-6.96-11.79-15.07-11.79-11.98,0-17.97,8.89-17.97,23.19s5.99,23.29,17.97,23.29c8.21,0,14.01-4.35,15.07-11.79h16.04c-1.55,14.5-14.21,24.54-30.92,24.54-20.1,0-33.82-13.34-33.82-36.04s13.72-35.95,33.82-35.95c17.2,0,29.38,9.76,30.92,24.54Z"/>
        <path class="cls-1" d="M448.59,180.34h14.88v57.11h31.89v12.95h-46.77v-70.06Z"/>
        <path class="cls-1" d="M500.96,180.34h14.98v43c0,8.99,6.18,15.08,15.46,15.08s15.27-6.09,15.27-15.08v-43h14.98v41.94c0,18.17-12.08,29.09-30.34,29.09s-30.34-11.69-30.34-29.09v-41.94Z"/>
        <path class="cls-1" d="M610.06,250.4h-33.92v-70.06h32.57c14.69,0,23.58,7.44,23.58,19.04,0,6.47-3.48,11.89-9.37,14.69,7.44,2.71,11.4,8.79,11.4,16.62,0,10.53-7.83,19.71-24.26,19.71ZM591.12,209.14h14.59c6.96,0,11.31-3.29,11.31-9.08s-4.45-8.6-11.31-8.6h-14.59v17.68ZM606.2,220.06h-15.07v19.23h15.07c7.44,0,12.56-3.09,12.56-9.76s-5.31-9.47-12.56-9.47Z"/>
      </g>
    </g>
  </g>
</svg>